name D:\school\WTK\thesis\model\3dpredictsim\Results\MidTarsalJoint\Fal_s1_bCst_PF_Song2011_ls150_MT_k300_MTP_T5_ig23.mot
datacolumns 128
datarows 4
range 1.70569972 1.73981371
endheader
time	pelvis_tilt	pelvis_list	pelvis_rotation	pelvis_tx	pelvis_ty	pelvis_tz	hip_flexion_l	hip_adduction_l	hip_rotation_l	hip_flexion_r	hip_adduction_r	hip_rotation_r	knee_angle_l	knee_angle_r	ankle_angle_l	ankle_angle_r	subtalar_angle_l	subtalar_angle_r	mtj_angle_l	mtj_angle_r	mtp_angle_l	mtp_angle_r	lumbar_extension	lumbar_bending	lumbar_rotation	arm_flex_l	arm_add_l	arm_rot_l	arm_flex_r	arm_add_r	arm_rot_r	elbow_flex_l	elbow_flex_r	pro_sup_l	pro_sup_r	glut_med1_l/activation	glut_med2_l/activation	glut_med3_l/activation	glut_min1_l/activation	glut_min2_l/activation	glut_min3_l/activation	semimem_l/activation	semiten_l/activation	bifemlh_l/activation	bifemsh_l/activation	sar_l/activation	add_long_l/activation	add_brev_l/activation	add_mag1_l/activation	add_mag2_l/activation	add_mag3_l/activation	tfl_l/activation	pect_l/activation	grac_l/activation	glut_max1_l/activation	glut_max2_l/activation	glut_max3_l/activation	iliacus_l/activation	psoas_l/activation	quad_fem_l/activation	gem_l/activation	peri_l/activation	rect_fem_l/activation	vas_med_l/activation	vas_int_l/activation	vas_lat_l/activation	med_gas_l/activation	lat_gas_l/activation	soleus_l/activation	tib_post_l/activation	flex_dig_l/activation	flex_hal_l/activation	tib_ant_l/activation	per_brev_l/activation	per_long_l/activation	per_tert_l/activation	ext_dig_l/activation	ext_hal_l/activation	ercspn_l/activation	intobl_l/activation	extobl_l/activation	glut_med1_r/activation	glut_med2_r/activation	glut_med3_r/activation	glut_min1_r/activation	glut_min2_r/activation	glut_min3_r/activation	semimem_r/activation	semiten_r/activation	bifemlh_r/activation	bifemsh_r/activation	sar_r/activation	add_long_r/activation	add_brev_r/activation	add_mag1_r/activation	add_mag2_r/activation	add_mag3_r/activation	tfl_r/activation	pect_r/activation	grac_r/activation	glut_max1_r/activation	glut_max2_r/activation	glut_max3_r/activation	iliacus_r/activation	psoas_r/activation	quad_fem_r/activation	gem_r/activation	peri_r/activation	rect_fem_r/activation	vas_med_r/activation	vas_int_r/activation	vas_lat_r/activation	med_gas_r/activation	lat_gas_r/activation	soleus_r/activation	tib_post_r/activation	flex_dig_r/activation	flex_hal_r/activation	tib_ant_r/activation	per_brev_r/activation	per_long_r/activation	per_tert_r/activation	ext_dig_r/activation	ext_hal_r/activation	ercspn_r/activation	intobl_r/activation	extobl_r/activation	
          1.70569972	         -2.93007288	          2.15505269	         -5.40832229	          2.13212465	          0.91901063	          0.00262548	         29.17850972	          3.30245746	         -3.34730098	        -16.63385496	         -0.93215261	          6.82458743	        -10.41960509	         -8.02471182	          5.29735143	         -4.66291966	         -3.34323110	          8.10467064	          0.34967552	          6.95920096	          0.33975061	         20.41333636	         -2.11220221	         -0.42757619	          2.07919396	         -4.95934174	        -13.45499863	          7.20170957	          5.50129829	        -13.45499378	         17.20672259	         15.86588081	         34.53734355	         86.51662706	         86.51662706	          0.05947609	          0.05947609	          0.05000008	          0.05947612	          0.05947612	          0.05815080	          0.16657614	          0.09053211	          0.21250662	          0.08263424	          0.05000008	          0.16848917	          0.28404448	          0.15130731	          0.21674229	          0.10832726	          0.05000007	          0.05000378	          0.15157604	          0.05000076	          0.05484144	          0.15576693	          0.05910850	          0.05000026	          0.27138298	          0.30496906	          0.14032026	          0.05000011	          0.10748542	          0.10387662	          0.09601885	          0.07072450	          0.07194294	          0.06366497	          0.05000001	          0.05000038	          0.05000015	          0.48588116	          0.23918052	          0.15918566	          0.17108386	          0.46284809	          0.21026931	          0.05846618	          0.11631692	          0.09965008	          0.24798324	          0.10010587	          0.06868570	          0.27706971	          0.18279215	          0.10060821	          0.05000071	          0.05000012	          0.05000006	          0.05183099	          0.10542765	          0.08855602	          0.06670910	          0.05000051	          0.05000086	          0.05000028	          0.31325417	          0.09423706	          0.05000086	          0.05000056	          0.05000029	          0.05000028	          0.42226870	          0.64683742	          0.05000004	          0.05000017	          0.05000056	          0.28606900	          0.05000016	          0.05000016	          0.05000016	          0.26272953	          0.36706526	          0.32926710	          0.29202947	          0.26538342	          0.34725913	          0.05000002	          0.05947583	          0.07464821	          0.05000014	          0.05000003	          0.05000014	          0.05000000	          0.05000004	          0.06083405	
          1.71707105	         -2.92841134	          2.23946377	         -5.69619598	          2.14937954	          0.91807286	          0.00241925	         28.56719879	          3.67960672	         -3.12240952	        -16.57302001	         -1.24484832	          6.64300900	        -10.89649506	         -9.81303502	          4.62151425	         -5.16247444	         -3.70780106	          9.16852983	          0.25256076	          6.00978168	          0.33312075	         22.23057839	         -1.90334678	         -0.61959535	          2.14903513	         -5.87001057	        -13.44970849	          6.98400025	          5.19137324	        -13.46532500	         17.48122904	         15.49329286	         35.73560273	         86.51662706	         86.51662706	          0.05000000	          0.05000001	          0.10721590	          0.05000002	          0.05000002	          0.05000002	          0.14003622	          0.07610799	          0.17864874	          0.06946849	          0.05950918	          0.14164449	          0.32135489	          0.33051926	          0.20629364	          0.11250264	          0.05000015	          0.07923077	          0.14459220	          0.05000077	          0.09414961	          0.14179750	          0.05000007	          0.05947716	          0.57254973	          0.25637948	          0.11796358	          0.05947646	          0.09934466	          0.10905456	          0.08914614	          0.06910918	          0.07074808	          0.06064667	          0.05947583	          0.05000160	          0.05947579	          0.47548028	          0.27300138	          0.20034552	          0.14382575	          0.38910490	          0.17676791	          0.05000000	          0.09778458	          0.08377320	          0.20847302	          0.08415639	          0.05774239	          0.23292527	          0.15366859	          0.08457870	          0.05000129	          0.05000051	          0.05000104	          0.05000005	          0.08863034	          0.17926287	          0.05947630	          0.05947669	          0.05947640	          0.05947632	          0.26334461	          0.07922456	          0.05000662	          0.05000888	          0.05002837	          0.05947603	          0.35499021	          0.60055627	          0.05947622	          0.05947649	          0.05000084	          0.24049072	          0.14617759	          0.14315488	          0.12330510	          0.22086980	          0.30858212	          0.28353283	          0.24550167	          0.22310104	          0.29193182	          0.05000001	          0.05000005	          0.08484676	          0.05000004	          0.05000001	          0.05000007	          0.06112103	          0.06905570	          0.06131973	
          1.72844238	         -2.92194861	          2.32839545	         -5.95145996	          2.16696010	          0.91715672	          0.00223687	         27.82549287	          3.94215086	         -2.86793012	        -16.45632675	         -1.55882134	          6.45029589	        -11.47771968	        -11.68466521	          4.04846493	         -5.78084122	         -4.09145949	         10.19621000	          0.08549310	          4.88029498	          0.29153468	         24.12168052	         -1.67142034	         -0.82445919	          2.20706628	         -6.81101218	        -13.45405963	          6.82105873	          4.78968610	        -13.47288642	         17.66360352	         15.17581962	         36.93273802	         86.51662706	         86.51662706	          0.24640625	          0.24947990	          0.29270252	          0.41632532	          0.26510884	          0.22199695	          0.11795933	          0.06398222	          0.15018533	          0.06428707	          0.05002792	          0.11907682	          0.27015463	          0.27785890	          0.17342572	          0.11869962	          0.05000026	          0.06660746	          0.12155498	          0.05000029	          0.10817569	          0.11920553	          0.05426808	          0.05000100	          0.48132751	          0.21553153	          0.21942418	          0.05000031	          0.08351650	          0.09167937	          0.07494287	          0.05809829	          0.05947607	          0.05098407	          0.05000003	          0.05000018	          0.05000021	          0.53759257	          0.31836608	          0.16842526	          0.37923194	          0.48255630	          0.14860426	          0.06286421	          0.11907840	          0.07042593	          0.32892227	          0.07074810	          0.05000011	          0.32780638	          0.12918521	          0.07110312	          0.05000068	          0.05000008	          0.05000006	          0.05000042	          0.07450962	          0.15070161	          0.05000028	          0.05000055	          0.05000046	          0.05000026	          0.28094812	          0.06660565	          0.05000050	          0.05000087	          0.05000042	          0.05000028	          0.29843100	          0.57345750	          0.05000016	          0.05000060	          0.05000032	          0.20217424	          0.12288769	          0.12034659	          0.10365939	          0.18567943	          0.25941688	          0.23835859	          0.20638682	          0.18755524	          0.24541945	          0.05000006	          0.06604211	          0.12189392	          0.05000023	          0.06792441	          0.05000019	          0.05310775	          0.05805331	          0.05154989	
          1.73981371	         -2.91271043	          2.41097632	         -6.16935234	          2.18464870	          0.91629768	          0.00202615	         27.03831858	          4.17226138	         -2.61427048	        -16.23952388	         -1.86393281	          6.27305283	        -12.01372006	        -13.69313089	          3.54853016	         -6.52980249	         -4.47705556	         11.20334857	          0.18837198	          3.61835216	          0.26771099	         26.00108955	         -1.44047580	         -1.02960891	          2.25476085	         -7.73512694	        -13.45943708	          6.71368628	          4.33419344	        -13.48793253	         17.78215605	         14.89068701	         38.10850815	         86.51662706	         86.51662706	          0.34826228	          0.34319961	          0.36277017	          0.34999382	          0.22287050	          0.22040884	          0.10039801	          0.06863095	          0.12625691	          0.05404464	          0.05000056	          0.10010476	          0.22711191	          0.23358875	          0.14579468	          0.15621986	          0.05000019	          0.05599533	          0.10218820	          0.20872053	          0.17517865	          0.14646810	          0.05000004	          0.05000004	          0.40463939	          0.18119172	          0.18446428	          0.05000004	          0.11380210	          0.12761370	          0.09472326	          0.05000002	          0.05000005	          0.05000000	          0.05000001	          0.05000006	          0.05000007	          0.60236928	          0.28511970	          0.15481295	          0.54590353	          0.51499123	          0.27080098	          0.08083457	          0.10010608	          0.05920524	          0.27651663	          0.05947610	          0.05000014	          0.27557829	          0.10860265	          0.05977455	          0.05000088	          0.05000011	          0.05000011	          0.05000006	          0.06263836	          0.14403834	          0.09923600	          0.05495524	          0.05000946	          0.05003821	          0.23618587	          0.05947800	          0.05000060	          0.05000218	          0.05000151	          0.05000146	          0.25088311	          0.51304400	          0.05000032	          0.05000078	          0.05000010	          0.16996258	          0.11907841	          0.11907843	          0.11907832	          0.15609582	          0.21808495	          0.20038180	          0.17350399	          0.15767280	          0.20631771	          0.08567510	          0.12437218	          0.10247332	          0.05000020	          0.13568259	          0.05000064	          0.07182289	          0.05000000	          0.05000001	
